<svg xmlns="http://www.w3.org/2000/svg" version="1.1" xmlns:xlink="http://www.w3.org/1999/xlink" xmlns:svgjs="http://svgjs.com/svgjs" width="20" height="20"><svg width="20" height="20" viewBox="0 0 20 20" fill="none" xmlns="http://www.w3.org/2000/svg">
<rect width="20" height="20" rx="4" fill="black"></rect>
<path d="M6.07812 16V13.6953H1.39062V11.7734L6.35938 4.5H8.20312V11.7656H9.625V13.6953H8.20312V16H6.07812ZM6.07812 11.7656V7.85156L3.44531 11.7656H6.07812ZM18.0938 13.9609V16H10.3984C10.4818 15.2292 10.7318 14.5 11.1484 13.8125C11.5651 13.1198 12.388 12.2031 13.6172 11.0625C14.6068 10.1406 15.2135 9.51562 15.4375 9.1875C15.7396 8.73438 15.8906 8.28646 15.8906 7.84375C15.8906 7.35417 15.7578 6.97917 15.4922 6.71875C15.2318 6.45312 14.8698 6.32031 14.4062 6.32031C13.9479 6.32031 13.5833 6.45833 13.3125 6.73438C13.0417 7.01042 12.8854 7.46875 12.8438 8.10938L10.6562 7.89062C10.7865 6.68229 11.1953 5.8151 11.8828 5.28906C12.5703 4.76302 13.4297 4.5 14.4609 4.5C15.5911 4.5 16.4792 4.80469 17.125 5.41406C17.7708 6.02344 18.0938 6.78125 18.0938 7.6875C18.0938 8.20312 18 8.69531 17.8125 9.16406C17.6302 9.6276 17.3385 10.1146 16.9375 10.625C16.6719 10.9635 16.1927 11.4505 15.5 12.0859C14.8073 12.7214 14.3672 13.1432 14.1797 13.3516C13.9974 13.5599 13.849 13.763 13.7344 13.9609H18.0938Z" fill="white"></path>
</svg><style>@media (prefers-color-scheme: light) { :root { filter: none; } }
</style></svg>